<mxfile host="app.diagrams.net" agent="Mozilla/5.0 (Macintosh; Intel Mac OS X 10_15_7) AppleWebKit/537.36 (KHTML, like Gecko) Chrome/139.0.0.0 Safari/537.36" version="28.1.0">
  <diagram name="第 1 页" id="eJ1FC5_jWgJoZ6K-wwZJ">
    <mxGraphModel dx="1426" dy="824" grid="1" gridSize="10" guides="1" tooltips="1" connect="1" arrows="1" fold="1" page="1" pageScale="1" pageWidth="827" pageHeight="1169" math="0" shadow="0">
      <root>
        <mxCell id="0" />
        <mxCell id="1" parent="0" />
        <mxCell id="4Rj2pSZw6Q_C70Ud2-cQ-64" value="" style="edgeStyle=orthogonalEdgeStyle;rounded=0;orthogonalLoop=1;jettySize=auto;html=1;" edge="1" parent="1" source="4Rj2pSZw6Q_C70Ud2-cQ-1" target="4Rj2pSZw6Q_C70Ud2-cQ-63">
          <mxGeometry relative="1" as="geometry" />
        </mxCell>
        <mxCell id="4Rj2pSZw6Q_C70Ud2-cQ-1" value="代码解释器生成代码" style="rounded=0;whiteSpace=wrap;html=1;" vertex="1" parent="1">
          <mxGeometry x="270" y="210" width="70" height="50" as="geometry" />
        </mxCell>
        <mxCell id="4Rj2pSZw6Q_C70Ud2-cQ-26" style="edgeStyle=orthogonalEdgeStyle;rounded=0;orthogonalLoop=1;jettySize=auto;html=1;exitX=1;exitY=0.5;exitDx=0;exitDy=0;entryX=1;entryY=0.5;entryDx=0;entryDy=0;" edge="1" parent="1" source="4Rj2pSZw6Q_C70Ud2-cQ-2" target="4Rj2pSZw6Q_C70Ud2-cQ-19">
          <mxGeometry relative="1" as="geometry">
            <Array as="points">
              <mxPoint x="430" y="383" />
              <mxPoint x="430" y="776" />
            </Array>
          </mxGeometry>
        </mxCell>
        <mxCell id="4Rj2pSZw6Q_C70Ud2-cQ-68" value="no" style="edgeLabel;html=1;align=center;verticalAlign=middle;resizable=0;points=[];" vertex="1" connectable="0" parent="4Rj2pSZw6Q_C70Ud2-cQ-26">
          <mxGeometry x="-0.908" y="1" relative="1" as="geometry">
            <mxPoint x="1" y="1" as="offset" />
          </mxGeometry>
        </mxCell>
        <mxCell id="4Rj2pSZw6Q_C70Ud2-cQ-49" style="edgeStyle=orthogonalEdgeStyle;rounded=0;orthogonalLoop=1;jettySize=auto;html=1;exitX=0.5;exitY=1;exitDx=0;exitDy=0;entryX=0.5;entryY=0;entryDx=0;entryDy=0;" edge="1" parent="1" source="4Rj2pSZw6Q_C70Ud2-cQ-2" target="4Rj2pSZw6Q_C70Ud2-cQ-48">
          <mxGeometry relative="1" as="geometry" />
        </mxCell>
        <mxCell id="4Rj2pSZw6Q_C70Ud2-cQ-50" value="yes" style="edgeLabel;html=1;align=center;verticalAlign=middle;resizable=0;points=[];" vertex="1" connectable="0" parent="4Rj2pSZw6Q_C70Ud2-cQ-49">
          <mxGeometry x="-0.5992" y="1" relative="1" as="geometry">
            <mxPoint y="3" as="offset" />
          </mxGeometry>
        </mxCell>
        <mxCell id="4Rj2pSZw6Q_C70Ud2-cQ-2" value="need_execute=1" style="rhombus;whiteSpace=wrap;html=1;rounded=0;" vertex="1" parent="1">
          <mxGeometry x="242.5" y="360" width="125" height="45" as="geometry" />
        </mxCell>
        <mxCell id="4Rj2pSZw6Q_C70Ud2-cQ-7" style="edgeStyle=orthogonalEdgeStyle;rounded=0;orthogonalLoop=1;jettySize=auto;html=1;exitX=0.5;exitY=1;exitDx=0;exitDy=0;" edge="1" parent="1" source="4Rj2pSZw6Q_C70Ud2-cQ-6" target="4Rj2pSZw6Q_C70Ud2-cQ-1">
          <mxGeometry relative="1" as="geometry" />
        </mxCell>
        <mxCell id="4Rj2pSZw6Q_C70Ud2-cQ-6" value="输入代码解释器的function call" style="rounded=0;whiteSpace=wrap;html=1;" vertex="1" parent="1">
          <mxGeometry x="260" y="130" width="90" height="50" as="geometry" />
        </mxCell>
        <mxCell id="4Rj2pSZw6Q_C70Ud2-cQ-10" value="" style="whiteSpace=wrap;html=1;rounded=0;" vertex="1" parent="1">
          <mxGeometry x="230" y="430" width="170" height="250" as="geometry" />
        </mxCell>
        <mxCell id="4Rj2pSZw6Q_C70Ud2-cQ-56" value="" style="edgeStyle=orthogonalEdgeStyle;rounded=0;orthogonalLoop=1;jettySize=auto;html=1;" edge="1" parent="1" source="4Rj2pSZw6Q_C70Ud2-cQ-14">
          <mxGeometry relative="1" as="geometry">
            <mxPoint x="305" y="760" as="targetPoint" />
          </mxGeometry>
        </mxCell>
        <mxCell id="4Rj2pSZw6Q_C70Ud2-cQ-59" value="yes" style="edgeLabel;html=1;align=center;verticalAlign=middle;resizable=0;points=[];" vertex="1" connectable="0" parent="4Rj2pSZw6Q_C70Ud2-cQ-56">
          <mxGeometry x="-0.2061" y="1" relative="1" as="geometry">
            <mxPoint y="1" as="offset" />
          </mxGeometry>
        </mxCell>
        <mxCell id="4Rj2pSZw6Q_C70Ud2-cQ-70" style="edgeStyle=orthogonalEdgeStyle;rounded=0;orthogonalLoop=1;jettySize=auto;html=1;exitX=0;exitY=0.5;exitDx=0;exitDy=0;entryX=0;entryY=0.5;entryDx=0;entryDy=0;" edge="1" parent="1" source="4Rj2pSZw6Q_C70Ud2-cQ-14" target="4Rj2pSZw6Q_C70Ud2-cQ-1">
          <mxGeometry relative="1" as="geometry">
            <Array as="points">
              <mxPoint x="210" y="718" />
              <mxPoint x="210" y="235" />
            </Array>
          </mxGeometry>
        </mxCell>
        <mxCell id="4Rj2pSZw6Q_C70Ud2-cQ-71" value="no" style="edgeLabel;html=1;align=center;verticalAlign=middle;resizable=0;points=[];" vertex="1" connectable="0" parent="4Rj2pSZw6Q_C70Ud2-cQ-70">
          <mxGeometry x="-0.872" y="1" relative="1" as="geometry">
            <mxPoint as="offset" />
          </mxGeometry>
        </mxCell>
        <mxCell id="4Rj2pSZw6Q_C70Ud2-cQ-14" value="执行成功" style="rhombus;whiteSpace=wrap;html=1;rounded=0;" vertex="1" parent="1">
          <mxGeometry x="265.25" y="700" width="80" height="35" as="geometry" />
        </mxCell>
        <mxCell id="4Rj2pSZw6Q_C70Ud2-cQ-19" value="结束" style="whiteSpace=wrap;html=1;rounded=0;" vertex="1" parent="1">
          <mxGeometry x="277.25" y="760" width="55" height="32.5" as="geometry" />
        </mxCell>
        <mxCell id="4Rj2pSZw6Q_C70Ud2-cQ-32" value="" style="edgeStyle=orthogonalEdgeStyle;rounded=0;orthogonalLoop=1;jettySize=auto;html=1;" edge="1" parent="1" source="4Rj2pSZw6Q_C70Ud2-cQ-33" target="4Rj2pSZw6Q_C70Ud2-cQ-36">
          <mxGeometry relative="1" as="geometry" />
        </mxCell>
        <mxCell id="4Rj2pSZw6Q_C70Ud2-cQ-33" value="代码执行管理器判断是否能够执行代码" style="whiteSpace=wrap;html=1;rounded=0;" vertex="1" parent="1">
          <mxGeometry x="261" y="460" width="87.5" height="60" as="geometry" />
        </mxCell>
        <mxCell id="4Rj2pSZw6Q_C70Ud2-cQ-40" value="" style="edgeStyle=orthogonalEdgeStyle;rounded=0;orthogonalLoop=1;jettySize=auto;html=1;" edge="1" parent="1" source="4Rj2pSZw6Q_C70Ud2-cQ-36" target="4Rj2pSZw6Q_C70Ud2-cQ-39">
          <mxGeometry relative="1" as="geometry" />
        </mxCell>
        <mxCell id="4Rj2pSZw6Q_C70Ud2-cQ-41" value="yes" style="edgeLabel;html=1;align=center;verticalAlign=middle;resizable=0;points=[];" vertex="1" connectable="0" parent="4Rj2pSZw6Q_C70Ud2-cQ-40">
          <mxGeometry x="-0.262" y="3" relative="1" as="geometry">
            <mxPoint x="-1" y="1" as="offset" />
          </mxGeometry>
        </mxCell>
        <mxCell id="4Rj2pSZw6Q_C70Ud2-cQ-42" value="" style="edgeStyle=orthogonalEdgeStyle;rounded=0;orthogonalLoop=1;jettySize=auto;html=1;" edge="1" parent="1" source="4Rj2pSZw6Q_C70Ud2-cQ-36" target="4Rj2pSZw6Q_C70Ud2-cQ-39">
          <mxGeometry relative="1" as="geometry" />
        </mxCell>
        <mxCell id="4Rj2pSZw6Q_C70Ud2-cQ-57" style="edgeStyle=orthogonalEdgeStyle;rounded=0;orthogonalLoop=1;jettySize=auto;html=1;exitX=1;exitY=0.5;exitDx=0;exitDy=0;entryX=1;entryY=0.5;entryDx=0;entryDy=0;" edge="1" parent="1" source="4Rj2pSZw6Q_C70Ud2-cQ-36" target="4Rj2pSZw6Q_C70Ud2-cQ-19">
          <mxGeometry relative="1" as="geometry" />
        </mxCell>
        <mxCell id="4Rj2pSZw6Q_C70Ud2-cQ-58" value="no" style="edgeLabel;html=1;align=center;verticalAlign=middle;resizable=0;points=[];" vertex="1" connectable="0" parent="4Rj2pSZw6Q_C70Ud2-cQ-57">
          <mxGeometry x="-0.6832" relative="1" as="geometry">
            <mxPoint as="offset" />
          </mxGeometry>
        </mxCell>
        <mxCell id="4Rj2pSZw6Q_C70Ud2-cQ-36" value="can_execute=1" style="rhombus;whiteSpace=wrap;html=1;rounded=0;" vertex="1" parent="1">
          <mxGeometry x="244.75" y="550" width="120" height="47" as="geometry" />
        </mxCell>
        <mxCell id="4Rj2pSZw6Q_C70Ud2-cQ-44" style="edgeStyle=orthogonalEdgeStyle;rounded=0;orthogonalLoop=1;jettySize=auto;html=1;exitX=0.5;exitY=1;exitDx=0;exitDy=0;entryX=0.5;entryY=0;entryDx=0;entryDy=0;" edge="1" parent="1" source="4Rj2pSZw6Q_C70Ud2-cQ-39" target="4Rj2pSZw6Q_C70Ud2-cQ-14">
          <mxGeometry relative="1" as="geometry">
            <mxPoint x="304.5" y="719" as="targetPoint" />
          </mxGeometry>
        </mxCell>
        <mxCell id="4Rj2pSZw6Q_C70Ud2-cQ-39" value="执行代码" style="whiteSpace=wrap;html=1;rounded=0;" vertex="1" parent="1">
          <mxGeometry x="267.19000000000005" y="624.5" width="76.12" height="30" as="geometry" />
        </mxCell>
        <mxCell id="4Rj2pSZw6Q_C70Ud2-cQ-48" value="code runner" style="text;html=1;align=center;verticalAlign=middle;whiteSpace=wrap;rounded=0;" vertex="1" parent="1">
          <mxGeometry x="265.25" y="430" width="80" height="30" as="geometry" />
        </mxCell>
        <mxCell id="4Rj2pSZw6Q_C70Ud2-cQ-65" style="edgeStyle=orthogonalEdgeStyle;rounded=0;orthogonalLoop=1;jettySize=auto;html=1;exitX=0.5;exitY=1;exitDx=0;exitDy=0;entryX=0.5;entryY=0;entryDx=0;entryDy=0;" edge="1" parent="1" source="4Rj2pSZw6Q_C70Ud2-cQ-63" target="4Rj2pSZw6Q_C70Ud2-cQ-2">
          <mxGeometry relative="1" as="geometry" />
        </mxCell>
        <mxCell id="4Rj2pSZw6Q_C70Ud2-cQ-66" value="no" style="edgeLabel;html=1;align=center;verticalAlign=middle;resizable=0;points=[];" vertex="1" connectable="0" parent="4Rj2pSZw6Q_C70Ud2-cQ-65">
          <mxGeometry x="-0.3333" y="1" relative="1" as="geometry">
            <mxPoint as="offset" />
          </mxGeometry>
        </mxCell>
        <mxCell id="4Rj2pSZw6Q_C70Ud2-cQ-67" style="edgeStyle=orthogonalEdgeStyle;rounded=0;orthogonalLoop=1;jettySize=auto;html=1;exitX=1;exitY=0.5;exitDx=0;exitDy=0;entryX=1;entryY=0.5;entryDx=0;entryDy=0;" edge="1" parent="1" source="4Rj2pSZw6Q_C70Ud2-cQ-63" target="4Rj2pSZw6Q_C70Ud2-cQ-19">
          <mxGeometry relative="1" as="geometry">
            <Array as="points">
              <mxPoint x="430" y="310" />
              <mxPoint x="430" y="776" />
            </Array>
          </mxGeometry>
        </mxCell>
        <mxCell id="4Rj2pSZw6Q_C70Ud2-cQ-69" value="yes" style="edgeLabel;html=1;align=center;verticalAlign=middle;resizable=0;points=[];" vertex="1" connectable="0" parent="4Rj2pSZw6Q_C70Ud2-cQ-67">
          <mxGeometry x="-0.8613" y="1" relative="1" as="geometry">
            <mxPoint as="offset" />
          </mxGeometry>
        </mxCell>
        <mxCell id="4Rj2pSZw6Q_C70Ud2-cQ-63" value="拒答" style="rhombus;whiteSpace=wrap;html=1;rounded=0;" vertex="1" parent="1">
          <mxGeometry x="265" y="290" width="80" height="40" as="geometry" />
        </mxCell>
      </root>
    </mxGraphModel>
  </diagram>
</mxfile>
